REM MD5 4bb1bd5e1a295d1daab4747c8e5d093b
FILE "Dengeki PlayStation D38 (Japan).bin" BINARY
  TRACK 01 MODE2/2352
    INDEX 01 00:00:00
  TRACK 02 AUDIO
    INDEX 00 55:14:62
    INDEX 01 55:16:62
  TRACK 03 AUDIO
    INDEX 00 57:40:46
    INDEX 01 57:42:46
  TRACK 04 AUDIO
    INDEX 00 61:39:50
    INDEX 01 61:41:50
REM LEADOUT 65:11:50
